<mxfile host="app.diagrams.net" modified="2022-04-07T06:22:41.345Z" agent="5.0 (Windows NT 10.0; Win64; x64) AppleWebKit/537.36 (KHTML, like Gecko) Chrome/100.0.4896.75 Safari/537.36" etag="wmKJSlec_j-5dVehk_hL" version="17.4.0" type="github">
  <diagram id="-qJdgvlnztHu8HNBG31l" name="Page-1">
    <mxGraphModel dx="1238" dy="651" grid="1" gridSize="11" guides="1" tooltips="1" connect="1" arrows="1" fold="1" page="1" pageScale="1" pageWidth="1200" pageHeight="1600" math="0" shadow="0">
      <root>
        <mxCell id="0" />
        <mxCell id="1" parent="0" />
        <mxCell id="hcO2sSvoOwKQq7zyTO_V-2" value="RTSP_PUSHER" style="shape=ext;double=1;rounded=1;whiteSpace=wrap;html=1;strokeColor=#82b366;fillColor=#d5e8d4;" vertex="1" parent="1">
          <mxGeometry x="570" y="190" width="120" height="40" as="geometry" />
        </mxCell>
        <mxCell id="hcO2sSvoOwKQq7zyTO_V-3" value="RTSP_SERVER" style="shape=ext;double=1;rounded=1;whiteSpace=wrap;html=1;strokeColor=#82b366;fillColor=#d5e8d4;" vertex="1" parent="1">
          <mxGeometry x="321" y="190" width="120" height="40" as="geometry" />
        </mxCell>
        <mxCell id="hcO2sSvoOwKQq7zyTO_V-4" value="" style="line;strokeWidth=4;direction=south;html=1;perimeter=backbonePerimeter;points=[];outlineConnect=0;" vertex="1" parent="1">
          <mxGeometry x="135" y="230" width="10" height="573" as="geometry" />
        </mxCell>
        <mxCell id="hcO2sSvoOwKQq7zyTO_V-5" value="" style="line;strokeWidth=4;direction=south;html=1;perimeter=backbonePerimeter;points=[];outlineConnect=0;" vertex="1" parent="1">
          <mxGeometry x="376" y="230" width="10" height="573" as="geometry" />
        </mxCell>
        <mxCell id="hcO2sSvoOwKQq7zyTO_V-8" value="RTSP_PLAYER" style="shape=ext;double=1;rounded=1;whiteSpace=wrap;html=1;strokeColor=#82b366;fillColor=#d5e8d4;" vertex="1" parent="1">
          <mxGeometry x="90" y="190" width="120" height="40" as="geometry" />
        </mxCell>
        <mxCell id="hcO2sSvoOwKQq7zyTO_V-9" value="" style="line;strokeWidth=4;direction=south;html=1;perimeter=backbonePerimeter;points=[];outlineConnect=0;" vertex="1" parent="1">
          <mxGeometry x="625" y="230" width="10" height="573" as="geometry" />
        </mxCell>
        <mxCell id="hcO2sSvoOwKQq7zyTO_V-10" value="OPTIONS" style="shape=ext;double=1;rounded=1;whiteSpace=wrap;html=1;strokeColor=#6c8ebf;fillColor=#dae8fc;" vertex="1" parent="1">
          <mxGeometry x="210" y="280" width="100" height="40" as="geometry" />
        </mxCell>
        <mxCell id="hcO2sSvoOwKQq7zyTO_V-11" value="DESCRIBE" style="shape=ext;double=1;rounded=1;whiteSpace=wrap;html=1;strokeColor=#6c8ebf;fillColor=#dae8fc;" vertex="1" parent="1">
          <mxGeometry x="210" y="352" width="100" height="40" as="geometry" />
        </mxCell>
        <mxCell id="hcO2sSvoOwKQq7zyTO_V-12" value="SETUP" style="shape=ext;double=1;rounded=1;whiteSpace=wrap;html=1;strokeColor=#6c8ebf;fillColor=#dae8fc;" vertex="1" parent="1">
          <mxGeometry x="210" y="426" width="100" height="40" as="geometry" />
        </mxCell>
        <mxCell id="hcO2sSvoOwKQq7zyTO_V-13" value="RTCP DATA" style="shape=ext;double=1;rounded=1;whiteSpace=wrap;html=1;strokeColor=#6c8ebf;fillColor=#dae8fc;" vertex="1" parent="1">
          <mxGeometry x="210" y="650" width="100" height="40" as="geometry" />
        </mxCell>
        <mxCell id="hcO2sSvoOwKQq7zyTO_V-14" value="PLAY" style="shape=ext;double=1;rounded=1;whiteSpace=wrap;html=1;strokeColor=#6c8ebf;fillColor=#dae8fc;" vertex="1" parent="1">
          <mxGeometry x="210" y="495" width="100" height="40" as="geometry" />
        </mxCell>
        <mxCell id="hcO2sSvoOwKQq7zyTO_V-15" value="RTP DATA" style="shape=ext;double=1;rounded=1;whiteSpace=wrap;html=1;strokeColor=#6c8ebf;fillColor=#dae8fc;" vertex="1" parent="1">
          <mxGeometry x="210" y="570" width="100" height="40" as="geometry" />
        </mxCell>
        <mxCell id="hcO2sSvoOwKQq7zyTO_V-19" value="" style="endArrow=block;startArrow=none;endFill=1;startFill=0;html=1;rounded=0;" edge="1" parent="1">
          <mxGeometry width="160" relative="1" as="geometry">
            <mxPoint x="140" y="300" as="sourcePoint" />
            <mxPoint x="210" y="300" as="targetPoint" />
          </mxGeometry>
        </mxCell>
        <mxCell id="hcO2sSvoOwKQq7zyTO_V-20" value="" style="endArrow=block;startArrow=none;endFill=1;startFill=0;html=1;rounded=0;" edge="1" parent="1">
          <mxGeometry width="160" relative="1" as="geometry">
            <mxPoint x="310" y="299.41" as="sourcePoint" />
            <mxPoint x="380" y="299.41" as="targetPoint" />
          </mxGeometry>
        </mxCell>
        <mxCell id="hcO2sSvoOwKQq7zyTO_V-21" value="" style="endArrow=block;startArrow=block;endFill=1;startFill=1;html=1;rounded=0;" edge="1" parent="1">
          <mxGeometry width="160" relative="1" as="geometry">
            <mxPoint x="140" y="371.40999999999997" as="sourcePoint" />
            <mxPoint x="210" y="371.40999999999997" as="targetPoint" />
          </mxGeometry>
        </mxCell>
        <mxCell id="hcO2sSvoOwKQq7zyTO_V-22" value="" style="endArrow=block;startArrow=block;endFill=1;startFill=1;html=1;rounded=0;" edge="1" parent="1">
          <mxGeometry width="160" relative="1" as="geometry">
            <mxPoint x="140" y="445.40999999999997" as="sourcePoint" />
            <mxPoint x="210" y="445.40999999999997" as="targetPoint" />
          </mxGeometry>
        </mxCell>
        <mxCell id="hcO2sSvoOwKQq7zyTO_V-23" value="" style="endArrow=block;startArrow=block;endFill=1;startFill=1;html=1;rounded=0;" edge="1" parent="1">
          <mxGeometry width="160" relative="1" as="geometry">
            <mxPoint x="310" y="371.40999999999997" as="sourcePoint" />
            <mxPoint x="380" y="371.40999999999997" as="targetPoint" />
          </mxGeometry>
        </mxCell>
        <mxCell id="hcO2sSvoOwKQq7zyTO_V-24" value="" style="endArrow=block;startArrow=block;endFill=1;startFill=1;html=1;rounded=0;" edge="1" parent="1">
          <mxGeometry width="160" relative="1" as="geometry">
            <mxPoint x="140" y="514.41" as="sourcePoint" />
            <mxPoint x="210" y="514.41" as="targetPoint" />
          </mxGeometry>
        </mxCell>
        <mxCell id="hcO2sSvoOwKQq7zyTO_V-25" value="" style="endArrow=block;startArrow=block;endFill=1;startFill=1;html=1;rounded=0;" edge="1" parent="1">
          <mxGeometry width="160" relative="1" as="geometry">
            <mxPoint x="145" y="589.41" as="sourcePoint" />
            <mxPoint x="215" y="589.41" as="targetPoint" />
          </mxGeometry>
        </mxCell>
        <mxCell id="hcO2sSvoOwKQq7zyTO_V-26" value="" style="endArrow=block;startArrow=block;endFill=1;startFill=1;html=1;rounded=0;" edge="1" parent="1">
          <mxGeometry width="160" relative="1" as="geometry">
            <mxPoint x="145" y="669.4100000000001" as="sourcePoint" />
            <mxPoint x="215" y="669.4100000000001" as="targetPoint" />
          </mxGeometry>
        </mxCell>
        <mxCell id="hcO2sSvoOwKQq7zyTO_V-27" value="" style="endArrow=block;startArrow=block;endFill=1;startFill=1;html=1;rounded=0;" edge="1" parent="1">
          <mxGeometry width="160" relative="1" as="geometry">
            <mxPoint x="310" y="589.41" as="sourcePoint" />
            <mxPoint x="380" y="589.41" as="targetPoint" />
          </mxGeometry>
        </mxCell>
        <mxCell id="hcO2sSvoOwKQq7zyTO_V-28" value="" style="endArrow=block;startArrow=block;endFill=1;startFill=1;html=1;rounded=0;" edge="1" parent="1">
          <mxGeometry width="160" relative="1" as="geometry">
            <mxPoint x="310" y="514.41" as="sourcePoint" />
            <mxPoint x="380" y="514.41" as="targetPoint" />
          </mxGeometry>
        </mxCell>
        <mxCell id="hcO2sSvoOwKQq7zyTO_V-29" value="" style="endArrow=block;startArrow=block;endFill=1;startFill=1;html=1;rounded=0;" edge="1" parent="1">
          <mxGeometry width="160" relative="1" as="geometry">
            <mxPoint x="310" y="445.40999999999997" as="sourcePoint" />
            <mxPoint x="380" y="445.40999999999997" as="targetPoint" />
          </mxGeometry>
        </mxCell>
        <mxCell id="hcO2sSvoOwKQq7zyTO_V-30" value="" style="endArrow=block;startArrow=block;endFill=1;startFill=1;html=1;rounded=0;" edge="1" parent="1">
          <mxGeometry width="160" relative="1" as="geometry">
            <mxPoint x="310" y="670" as="sourcePoint" />
            <mxPoint x="380" y="670" as="targetPoint" />
          </mxGeometry>
        </mxCell>
        <mxCell id="hcO2sSvoOwKQq7zyTO_V-33" value="OPTIONS" style="shape=ext;double=1;rounded=1;whiteSpace=wrap;html=1;strokeColor=#6c8ebf;fillColor=#dae8fc;" vertex="1" parent="1">
          <mxGeometry x="456" y="280" width="100" height="40" as="geometry" />
        </mxCell>
        <mxCell id="hcO2sSvoOwKQq7zyTO_V-34" value="" style="endArrow=block;startArrow=block;endFill=1;startFill=1;html=1;rounded=0;" edge="1" parent="1">
          <mxGeometry width="160" relative="1" as="geometry">
            <mxPoint x="386" y="300" as="sourcePoint" />
            <mxPoint x="456" y="300" as="targetPoint" />
          </mxGeometry>
        </mxCell>
        <mxCell id="hcO2sSvoOwKQq7zyTO_V-35" value="" style="endArrow=block;startArrow=block;endFill=1;startFill=1;html=1;rounded=0;" edge="1" parent="1">
          <mxGeometry width="160" relative="1" as="geometry">
            <mxPoint x="556" y="299.4100000000001" as="sourcePoint" />
            <mxPoint x="626" y="299.4100000000001" as="targetPoint" />
          </mxGeometry>
        </mxCell>
        <mxCell id="hcO2sSvoOwKQq7zyTO_V-36" value="ANNOUNCE" style="shape=ext;double=1;rounded=1;whiteSpace=wrap;html=1;strokeColor=#6c8ebf;fillColor=#dae8fc;" vertex="1" parent="1">
          <mxGeometry x="456" y="352" width="100" height="40" as="geometry" />
        </mxCell>
        <mxCell id="hcO2sSvoOwKQq7zyTO_V-37" value="" style="endArrow=block;startArrow=block;endFill=1;startFill=1;html=1;rounded=0;" edge="1" parent="1">
          <mxGeometry width="160" relative="1" as="geometry">
            <mxPoint x="385.9999999999998" y="372" as="sourcePoint" />
            <mxPoint x="455.9999999999998" y="372" as="targetPoint" />
          </mxGeometry>
        </mxCell>
        <mxCell id="hcO2sSvoOwKQq7zyTO_V-38" value="" style="endArrow=block;startArrow=block;endFill=1;startFill=1;html=1;rounded=0;" edge="1" parent="1">
          <mxGeometry width="160" relative="1" as="geometry">
            <mxPoint x="556" y="371.4100000000001" as="sourcePoint" />
            <mxPoint x="626" y="371.4100000000001" as="targetPoint" />
          </mxGeometry>
        </mxCell>
        <mxCell id="hcO2sSvoOwKQq7zyTO_V-39" value="SETUP" style="shape=ext;double=1;rounded=1;whiteSpace=wrap;html=1;strokeColor=#6c8ebf;fillColor=#dae8fc;" vertex="1" parent="1">
          <mxGeometry x="456" y="426" width="100" height="40" as="geometry" />
        </mxCell>
        <mxCell id="hcO2sSvoOwKQq7zyTO_V-40" value="" style="endArrow=block;startArrow=block;endFill=1;startFill=1;html=1;rounded=0;" edge="1" parent="1">
          <mxGeometry width="160" relative="1" as="geometry">
            <mxPoint x="385.9999999999998" y="446" as="sourcePoint" />
            <mxPoint x="455.9999999999998" y="446" as="targetPoint" />
          </mxGeometry>
        </mxCell>
        <mxCell id="hcO2sSvoOwKQq7zyTO_V-41" value="" style="endArrow=block;startArrow=block;endFill=1;startFill=1;html=1;rounded=0;" edge="1" parent="1">
          <mxGeometry width="160" relative="1" as="geometry">
            <mxPoint x="556" y="445.4100000000001" as="sourcePoint" />
            <mxPoint x="626" y="445.4100000000001" as="targetPoint" />
          </mxGeometry>
        </mxCell>
        <mxCell id="hcO2sSvoOwKQq7zyTO_V-42" value="RECORD" style="shape=ext;double=1;rounded=1;whiteSpace=wrap;html=1;strokeColor=#6c8ebf;fillColor=#dae8fc;" vertex="1" parent="1">
          <mxGeometry x="456" y="495" width="100" height="40" as="geometry" />
        </mxCell>
        <mxCell id="hcO2sSvoOwKQq7zyTO_V-43" value="" style="endArrow=block;startArrow=block;endFill=1;startFill=1;html=1;rounded=0;" edge="1" parent="1">
          <mxGeometry width="160" relative="1" as="geometry">
            <mxPoint x="385.9999999999998" y="515" as="sourcePoint" />
            <mxPoint x="455.9999999999998" y="515" as="targetPoint" />
          </mxGeometry>
        </mxCell>
        <mxCell id="hcO2sSvoOwKQq7zyTO_V-44" value="" style="endArrow=block;startArrow=block;endFill=1;startFill=1;html=1;rounded=0;" edge="1" parent="1">
          <mxGeometry width="160" relative="1" as="geometry">
            <mxPoint x="556" y="514.4100000000001" as="sourcePoint" />
            <mxPoint x="626" y="514.4100000000001" as="targetPoint" />
          </mxGeometry>
        </mxCell>
        <mxCell id="hcO2sSvoOwKQq7zyTO_V-45" value="RTP DATA" style="shape=ext;double=1;rounded=1;whiteSpace=wrap;html=1;strokeColor=#6c8ebf;fillColor=#dae8fc;" vertex="1" parent="1">
          <mxGeometry x="456" y="570" width="100" height="40" as="geometry" />
        </mxCell>
        <mxCell id="hcO2sSvoOwKQq7zyTO_V-46" value="" style="endArrow=block;startArrow=block;endFill=1;startFill=1;html=1;rounded=0;" edge="1" parent="1">
          <mxGeometry width="160" relative="1" as="geometry">
            <mxPoint x="385.9999999999998" y="590" as="sourcePoint" />
            <mxPoint x="455.9999999999998" y="590" as="targetPoint" />
          </mxGeometry>
        </mxCell>
        <mxCell id="hcO2sSvoOwKQq7zyTO_V-47" value="" style="endArrow=block;startArrow=block;endFill=1;startFill=1;html=1;rounded=0;" edge="1" parent="1">
          <mxGeometry width="160" relative="1" as="geometry">
            <mxPoint x="556" y="589.4100000000001" as="sourcePoint" />
            <mxPoint x="626" y="589.4100000000001" as="targetPoint" />
          </mxGeometry>
        </mxCell>
        <mxCell id="hcO2sSvoOwKQq7zyTO_V-48" value="RTCP DATA" style="shape=ext;double=1;rounded=1;whiteSpace=wrap;html=1;strokeColor=#6c8ebf;fillColor=#dae8fc;" vertex="1" parent="1">
          <mxGeometry x="456" y="650" width="100" height="40" as="geometry" />
        </mxCell>
        <mxCell id="hcO2sSvoOwKQq7zyTO_V-49" value="" style="endArrow=block;startArrow=block;endFill=1;startFill=1;html=1;rounded=0;" edge="1" parent="1">
          <mxGeometry width="160" relative="1" as="geometry">
            <mxPoint x="385.9999999999998" y="670" as="sourcePoint" />
            <mxPoint x="455.9999999999998" y="670" as="targetPoint" />
          </mxGeometry>
        </mxCell>
        <mxCell id="hcO2sSvoOwKQq7zyTO_V-50" value="" style="endArrow=block;startArrow=block;endFill=1;startFill=1;html=1;rounded=0;" edge="1" parent="1">
          <mxGeometry width="160" relative="1" as="geometry">
            <mxPoint x="556" y="669.4100000000001" as="sourcePoint" />
            <mxPoint x="626" y="669.4100000000001" as="targetPoint" />
          </mxGeometry>
        </mxCell>
        <mxCell id="hcO2sSvoOwKQq7zyTO_V-55" value="TEARDOWN" style="shape=ext;double=1;rounded=1;whiteSpace=wrap;html=1;strokeColor=#6c8ebf;fillColor=#dae8fc;" vertex="1" parent="1">
          <mxGeometry x="207.5" y="720" width="100" height="40" as="geometry" />
        </mxCell>
        <mxCell id="hcO2sSvoOwKQq7zyTO_V-56" value="" style="endArrow=block;startArrow=block;endFill=1;startFill=1;html=1;rounded=0;" edge="1" parent="1">
          <mxGeometry width="160" relative="1" as="geometry">
            <mxPoint x="142.5" y="739.4100000000001" as="sourcePoint" />
            <mxPoint x="212.5" y="739.4100000000001" as="targetPoint" />
          </mxGeometry>
        </mxCell>
        <mxCell id="hcO2sSvoOwKQq7zyTO_V-57" value="" style="endArrow=block;startArrow=block;endFill=1;startFill=1;html=1;rounded=0;" edge="1" parent="1">
          <mxGeometry width="160" relative="1" as="geometry">
            <mxPoint x="307.5" y="740" as="sourcePoint" />
            <mxPoint x="377.5" y="740" as="targetPoint" />
          </mxGeometry>
        </mxCell>
        <mxCell id="hcO2sSvoOwKQq7zyTO_V-58" value="TEARDOWN" style="shape=ext;double=1;rounded=1;whiteSpace=wrap;html=1;strokeColor=#6c8ebf;fillColor=#dae8fc;" vertex="1" parent="1">
          <mxGeometry x="451" y="720" width="100" height="40" as="geometry" />
        </mxCell>
        <mxCell id="hcO2sSvoOwKQq7zyTO_V-59" value="" style="endArrow=block;startArrow=block;endFill=1;startFill=1;html=1;rounded=0;" edge="1" parent="1">
          <mxGeometry width="160" relative="1" as="geometry">
            <mxPoint x="386" y="739.4100000000001" as="sourcePoint" />
            <mxPoint x="456" y="739.4100000000001" as="targetPoint" />
          </mxGeometry>
        </mxCell>
        <mxCell id="hcO2sSvoOwKQq7zyTO_V-60" value="" style="endArrow=block;startArrow=block;endFill=1;startFill=1;html=1;rounded=0;" edge="1" parent="1">
          <mxGeometry width="160" relative="1" as="geometry">
            <mxPoint x="551" y="740" as="sourcePoint" />
            <mxPoint x="621" y="740" as="targetPoint" />
          </mxGeometry>
        </mxCell>
        <mxCell id="hcO2sSvoOwKQq7zyTO_V-61" value="&lt;h2&gt;&lt;br&gt;&lt;/h2&gt;" style="text;html=1;align=center;verticalAlign=middle;resizable=0;points=[];autosize=1;strokeColor=none;fillColor=none;fontFamily=Comic Sans MS;fontStyle=1" vertex="1" parent="1">
          <mxGeometry x="834" y="280" width="22" height="55" as="geometry" />
        </mxCell>
      </root>
    </mxGraphModel>
  </diagram>
</mxfile>
